<svg width="40" height="40" viewBox="0 0 40 40" fill="none" xmlns="http://www.w3.org/2000/svg">
<path d="M33.3333 19.9038C33.3333 12.603 27.3738 6.66634 20 6.66634C12.6261 6.66634 6.66668 12.603 6.66668 19.9038C6.66668 21.887 6.91099 23.1637 7.21406 24.0972C7.41586 24.7185 7.90198 24.1068 8.14114 23.8825C9.77784 22.3468 12.3368 22.3833 13.9289 23.9653C16.2969 26.318 18.481 29.5813 15.4634 32.5813C13.8435 34.192 11.4038 34.8618 9.54724 33.1272C7.15061 30.8877 5.06811 28.2817 4.04366 25.1265C3.61501 23.8063 3.33334 22.1745 3.33334 19.9038C3.33334 10.742 10.8053 3.33301 20 3.33301C29.1947 3.33301 36.6667 10.742 36.6667 19.9038C36.6667 22.1745 36.385 23.8063 35.9563 25.1265C34.9318 28.2817 32.8493 30.8877 30.4528 33.1272C28.5962 34.8618 26.1565 34.192 24.5365 32.5813C21.519 29.5813 23.703 26.318 26.071 23.9653C27.6632 22.3833 30.2222 22.3468 31.8588 23.8825C32.3208 24.316 32.5477 24.8312 32.786 24.0972C33.089 23.1637 33.3333 21.887 33.3333 19.9038Z" fill="#EFF5E1"/>
</svg>
