<svg width="40" viewBox="0 0 40 0" fill="none" xmlns="http://www.w3.org/2000/svg">
<path d="M-8.74228e-08 -1L-1 -1L-1 1L8.74228e-08 1L-8.74228e-08 -1ZM40.7071 0.707103C41.0976 0.316579 41.0976 -0.316586 40.7071 -0.70711L34.3431 -7.07107C33.9526 -7.4616 33.3195 -7.4616 32.9289 -7.07107C32.5384 -6.68055 32.5384 -6.04738 32.9289 -5.65686L38.5858 -3.37328e-06L32.9289 5.65685C32.5384 6.04738 32.5384 6.68054 32.9289 7.07106C33.3195 7.46159 33.9526 7.46159 34.3431 7.07106L40.7071 0.707103ZM0 0L8.74228e-08 1L40 0.999997L40 -3.49691e-06L40 -1L-8.74228e-08 -1L0 0Z" fill="#FEFFF4"/>
</svg>
